<svg t="1595232669795" class="icon" viewBox="0 0 1024 1024" version="1.1" xmlns="http://www.w3.org/2000/svg" p-id="7287" width="128" height="128"><path d="M826.026667 440.32l-337.92 341.333333-242.346667-242.346666 337.92-341.333334h3.413333l238.933334 238.933334c3.413333 0 3.413333 0 0 3.413333 3.413333 0 3.413333 0 0 0zM361.813333 839.68l-170.666666-170.666667 54.613333-85.333333L443.733333 785.066667l-81.92 54.613333zM273.066667 836.266667h-30.72l-61.44-61.44 30.72-34.133334L286.72 819.2l-13.653333 17.066667zM672.426667 174.08l177.493333 180.906667c3.413333 3.413333 3.413333 10.24 0 13.653333l-20.48 20.48-191.146667-194.56 20.48-20.48c3.413333-3.413333 10.24-3.413333 13.653334 0z m201.386666 153.6l-177.493333-180.906667c-17.066667-17.066667-47.786667-17.066667-64.853333 0l-20.48 23.893334c-6.826667-6.826667-13.653333-10.24-23.893334-10.24-10.24 0-20.48 3.413333-27.306666 10.24L201.386667 535.893333l20.48 20.48L163.84 648.533333c-10.24 13.653333-6.826667 34.133333 3.413333 44.373334l23.893334 23.893333-58.026667 58.026667 95.573333 95.573333h58.026667l27.306667-27.306667 23.893333 23.893334c6.826667 6.826667 17.066667 10.24 23.893333 10.24 6.826667 0 13.653333-3.413333 17.066667-6.826667l88.746667-58.026667 20.48 20.48L853.333333 464.213333c6.826667-6.826667 10.24-17.066667 10.24-27.306666 0-10.24-3.413333-17.066667-10.24-23.893334l20.48-20.48c17.066667-17.066667 17.066667-47.786667 0-64.853333z m0 0" p-id="7288"></path></svg>