<svg t="1595915688846" class="icon" viewBox="0 0 1280 1024" version="1.1" xmlns="http://www.w3.org/2000/svg" p-id="12274"><path d="M1244.6 542.2l-230.4-90c-8.2-3.2-25.2-7.4-44.4 0l-230.4 90c-21.4 8.4-35.4 28-35.4 49.8 0 223.2 137.4 377.6 265.8 427.8 19.2 7.4 36 3.2 44.4 0C1116.8 979.8 1280 841 1280 592c0-21.8-14-41.4-35.4-49.8zM992 924.8V546.6l191 74.6c-11.2 174.2-121.8 270.8-191 303.6zM448 512c141.4 0 256-114.6 256-256S589.4 0 448 0 192 114.6 192 256s114.6 256 256 256z m192 80c0-5 1.6-9.6 2.2-14.4-5-0.2-9.8-1.6-15-1.6h-33.4c-44.4 20.4-93.8 32-145.8 32s-101.2-11.6-145.8-32h-33.4C120.4 576 0 696.4 0 844.8V928c0 53 43 96 96 96h704c13.6 0 26.6-3 38.4-8-108-85.8-198.4-233.4-198.4-424z" p-id="12275"></path></svg>