<?xml version="1.0" standalone="no"?><!DOCTYPE svg PUBLIC "-//W3C//DTD SVG 1.1//EN" "http://www.w3.org/Graphics/SVG/1.1/DTD/svg11.dtd"><svg t="1595231259620" class="icon" viewBox="0 0 1024 1024" version="1.1" xmlns="http://www.w3.org/2000/svg" p-id="2237" xmlns:xlink="http://www.w3.org/1999/xlink" width="200" height="200"><defs><style type="text/css"></style></defs><path d="M341.333333 413.297778c-104.675556 0-189.610667-84.138667-189.610666-187.847111v-37.546667C151.722667 84.081778 236.600889 0 341.333333 0c104.675556 0 189.610667 84.138667 189.610667 187.847111v37.546667c0 103.765333-84.878222 187.904-189.610667 187.904zM452.152889 772.892444H37.944889c-20.935111 0-37.944889-18.204444-37.944889-40.675555v-19.285333c0-92.444444 57.912889-173.795556 141.482667-196.608 55.921778-15.303111 124.814222-27.875556 199.850666-27.875556 34.133333 0 67.015111 2.56 97.962667 6.826667A226.531556 226.531556 0 0 0 398.222222 625.777778c0 56.092444 20.309333 107.406222 53.930667 147.114666z" p-id="2238"></path><path d="M930.019556 984.234667l-124.586667-176.184889a201.955556 201.955556 0 0 1-111.160889 12.117333c-109.966222-19.399111-183.751111-123.790222-164.579556-232.675555 19.171556-108.942222 124.302222-181.816889 234.211556-162.417778 109.966222 19.342222 183.751111 123.790222 164.579556 232.675555a197.290667 197.290667 0 0 1-49.493334 99.271111l124.586667 176.184889-73.557333 51.029334z m-220.273778-251.904c61.155556 10.808889 119.466667-29.582222 130.104889-90.168889a111.957333 111.957333 0 0 0-91.420445-129.308445c-61.155556-10.808889-119.466667 29.582222-130.104889 90.225778a111.957333 111.957333 0 0 0 91.420445 129.251556z" p-id="2239"></path></svg>