<svg t="1595916772083" class="icon" viewBox="0 0 1082 1024" version="1.1" xmlns="http://www.w3.org/2000/svg" p-id="23528"><path d="M616.20373 581.78267a273.988 273.988 0 0 0-125.290232-30.400972q-66.915512 15.928653-98.477001 15.928653-32.122783 0-92.446867-15.928653C133.337995 551.381698 0 696.939245 0 874.885054v19.455711c0 74.333714 133.33041 74.333714 296.978356 74.333714h190.916283c38.183257 0 74.743308-0.151701 108.367935-1.334973a317.852476 317.852476 0 0 1-55.18899-179.66762c0-78.770981 28.292322-150.685057 75.130146-205.904386zM142.682805 254.426097C142.682805 115.717871 256.231345 0 392.360647 0 530.27244 0 642.099169 113.882283 642.182605 254.426097c0.546125 67.67402-25.592036 132.738774-72.543637 180.592999s-110.795159 74.515755-177.202471 73.9848c-137.881454-0.091021-249.632331-113.988474-249.677842-254.509533z m530.408971 510.027881l-50.311788-38.994859a11.885809 11.885809 0 0 1-2.867157-15.11705l47.694938-81.767085a11.650672 11.650672 0 0 1 14.532999-5.195775l59.36078 23.635087c12.363669-9.223449 25.743737-17.256041 40.269152-23.157227l9.048992-62.622361a11.643087 11.643087 0 0 1 11.741692-9.860595h95.298855A11.643087 11.643087 0 0 1 909.526081 561.295388l9.102087 62.622361a173.834699 173.834699 0 0 1 40.200886 23.157228l59.436631-23.635087a12.037511 12.037511 0 0 1 14.532999 5.20336l47.694938 81.7595a11.893394 11.893394 0 0 1-2.867157 15.124635l-50.311788 38.994859a166.7199 166.7199 0 0 1 0 46.30687l50.235937 38.994859a11.559651 11.559651 0 0 1 2.943008 15.124635l-47.619087 81.77467a11.643087 11.643087 0 0 1-14.532999 5.195775l-59.36078-23.627502c-12.371254 9.215863-25.743737 17.248456-40.269152 23.157228l-9.102087 62.622361a11.650672 11.650672 0 0 1-11.589991 9.921275h-95.450557a11.658257 11.658257 0 0 1-11.741692-9.921275l-9.018652-62.622361a175.01797 175.01797 0 0 1-40.269152-23.157228l-59.360779 23.627502a12.02234 12.02234 0 0 1-14.533-5.195775l-47.732863-81.827765a11.885809 11.885809 0 0 1 2.867157-15.11705l50.235938-38.99486a183.240189 183.240189 0 0 1-1.517015-23.157227 188.223582 188.223582 0 0 1 1.517015-23.157227z m177.088695-59.550406c-45.988296 0-83.481311 37.098591-83.481311 82.677293s37.493015 82.677294 83.481311 82.677294 83.481311-37.091006 83.481312-82.677294-37.493015-82.677294-83.481312-82.677293z m0 0" p-id="23529"></path></svg>